# xmcd
# Track frame offsets:
# 150
# 10758
# 27787
# 46167
# 57934
# 74708
# 86861
# 101880
# 114167
# 130896
# 144168
# 157233
# 172200
# 189107
#
# Disc length: 2762 seconds
# Revision: 0
# Processed by: cddbd v1.5.2PL0 Copyright (c) Steve Scherf et al.
# Submitted via: VisiTrax 2.11.1.266 - For more info visit www.synapsa.com
#
DISCID=bf0ac80e
DTITLE=Tim Watson - Merry Christmas from Nashville
DYEAR=2010
DGENRE=Christmas
TTITLE0=Let It Snow
TTITLE1=Christmas on Rocky Top
TTITLE2=The Christmas Song
TTITLE3=Jingle Bells
TTITLE4=Christmas in Dixie
TTITLE5=Momma Dancin' with Santa
TTITLE6=White Christmas
TTITLE7=Christmas Times a Comin'
TTITLE8=Tender Tennessee Christmas
TTITLE9=Rudolf
TTITLE10=I' ll Be Home For Christmas
TTITLE11=Grandma Got Run Over
TTITLE12=Blue Christmas
TTITLE13=Santa Claus is Back in Town
EXTD=
EXTT0=
EXTT1=
EXTT2=
EXTT3=
EXTT4=
EXTT5=
EXTT6=
EXTT7=
EXTT8=
EXTT9=
EXTT10=
EXTT11=
EXTT12=
EXTT13=
PLAYORDER=
